<svg xmlns="http://www.w3.org/2000/svg" xmlns:xlink="http://www.w3.org/1999/xlink" viewBox="0 0 194.96 178.56"><defs><style>.cls-1{fill:#1d1d1b;}.cls-2{fill:#ec606f;}.cls-3{fill:url(#Dégradé_sans_nom_2);}.cls-4{fill:#fbc271;}</style><linearGradient id="Dégradé_sans_nom_2" x1="69" y1="66.89" x2="142.79" y2="66.89" gradientUnits="userSpaceOnUse"><stop offset="0.01" stop-color="#fbc271"/><stop offset="1" stop-color="#ec606f"/></linearGradient></defs><g id="text"><path class="cls-1" d="M14.48,147.27c-1.68-.12-2.79-.52-3.31-1.2a4,4,0,0,1-.79-2.53,16.94,16.94,0,0,1,.62-4.1c.41-1.59,1-3.3,1.62-5.11s1.4-3.61,2.2-5.39l-1.65.14-2.29.21c-.78.07-1.41.16-1.88.25a3.14,3.14,0,0,1,1.12-2.23,6.13,6.13,0,0,1,2.53-1.18,16.61,16.61,0,0,1,3.36-.41q1.24-3.31,2.55-6.47t2.65-5.78a5.54,5.54,0,0,0-.67-.07c-.25,0-.6,0-1.05,0A13.65,13.65,0,0,0,15,114a3.92,3.92,0,0,0-2.19,1.71,5.64,5.64,0,0,0-.6,2.72,8.51,8.51,0,0,0,.24,2.09,13.72,13.72,0,0,0,.72,2.05,5.49,5.49,0,0,1-3.2-1.4A3.7,3.7,0,0,1,9,118.53a5.82,5.82,0,0,1,1.83-4.23,12.51,12.51,0,0,1,5-2.9,21.68,21.68,0,0,1,7-1.06,39.07,39.07,0,0,1,5.06.32,38.44,38.44,0,0,0,4.72.32,15.34,15.34,0,0,0,2.29-.16,24.13,24.13,0,0,0,2.53-.53,18.06,18.06,0,0,1-3.74,3.27,5.76,5.76,0,0,1-2.84.83,18.86,18.86,0,0,1-3-.3c-1.21-.2-2.51-.35-3.91-.44-.42,1-.86,2.12-1.34,3.41s-1,2.67-1.45,4.14-1,3-1.51,4.56c1.66.13,3.15.26,4.49.42s2.81.26,4.44.32a6.45,6.45,0,0,1-1.17,1.17,3.88,3.88,0,0,1-1.58.63,21.87,21.87,0,0,1-2.67.27c-1.13.06-2.6.11-4.41.14-.26.92-.53,1.86-.81,2.81s-.54,1.77-.74,2.44-.34,1.09-.41,1.24A69.11,69.11,0,0,0,15,142.41,28.38,28.38,0,0,0,14.48,147.27Z"/><path class="cls-1" d="M30.18,147.32a4,4,0,0,1,1.33-2.88,6.3,6.3,0,0,1,3-1.18,26.58,26.58,0,0,1,3.91-.27A29.56,29.56,0,0,0,40,138.77c.53-1.64,1-3.4,1.53-5.27s1-3.78,1.43-5.73.9-3.84,1.31-5.67.81-3.49,1.19-5,.75-2.75,1.1-3.73q-2.43,0-4.32.18c-1.25.09-2.44.22-3.55.37s-2.26.34-3.44.55a4.61,4.61,0,0,1,3-3.31,21.11,21.11,0,0,1,7.58-1c1.69,0,3.44.06,5.25.19s3.49.26,5,.41,2.72.29,3.58.42A7.28,7.28,0,0,1,56.66,113a10.88,10.88,0,0,1-2.48.35H51.39c-.82,0-1.6,0-2.37,0-.22,1-.47,2.31-.74,3.82s-.57,3.11-.9,4.83-.66,3.44-1,5.16-.64,3.33-.95,4.81-.61,2.73-.86,3.71a30.75,30.75,0,0,1-1.48,4.38,8.81,8.81,0,0,1-2,3c1.69.12,3.39.28,5.11.46s3.61.31,5.67.37a9,9,0,0,1-3.62,2.14,12.11,12.11,0,0,1-2.82.44c-2.13,0-3.9,0-5.32,0s-2.64.05-3.69.09-2.06.13-3,.26S31.39,147.13,30.18,147.32Z"/><path class="cls-1" d="M57.42,147.27q.72-2.31,1.62-5t2.1-6.45q1.2-3.71,2.77-8.82t3.62-12.06c0-.1.1-.33.2-.7a4.54,4.54,0,0,0,.14-1.1.81.81,0,0,0-.12-.51.68.68,0,0,0-.5-.14,3,3,0,0,0-1.93.79,8.24,8.24,0,0,0-1.67,2,10.49,10.49,0,0,0-1.15,2.45,7.51,7.51,0,0,0-.4,2.28,5.2,5.2,0,0,0,.47,2.16,4.14,4.14,0,0,1-3-.85,2.89,2.89,0,0,1-.85-2.14,5.87,5.87,0,0,1,1-3.16,12.84,12.84,0,0,1,2.55-2.9,15.22,15.22,0,0,1,3.25-2.12,7.3,7.3,0,0,1,3.07-.8,3.58,3.58,0,0,1,2.75,1.17,9,9,0,0,1,1.76,3.2,33.21,33.21,0,0,1,1.17,4.61q.48,2.58.91,5.43c.38,2.46.68,4.41.9,5.87s.41,2.62.55,3.48.27,1.58.38,2.16.23,1.25.36,2c.38-1.47.77-3,1.17-4.67s.8-3.31,1.22-5,.81-3.34,1.21-5,.81-3.12,1.22-4.53.82-2.67,1.22-3.76a15.73,15.73,0,0,1,1.16-2.6A7.31,7.31,0,0,1,86,110.91a3.57,3.57,0,0,1,2.51-.85q-.81,2.07-1.84,5.13t-2.07,6.64q-1,3.57-2,7.27t-1.74,7.19c-.51,2.31-.92,4.43-1.22,6.33a31.09,31.09,0,0,0-.45,4.65,4.82,4.82,0,0,1-2.89-.81,5.24,5.24,0,0,1-1.69-3.15c-.13-.52-.32-1.4-.57-2.63s-.55-2.67-.86-4.35-.66-3.43-1-5.27-.68-3.65-1-5.41-.6-3.35-.86-4.74-.46-2.47-.62-3.21q-2.14,7.56-3.67,12.78T63.29,139a44.89,44.89,0,0,1-2,5.09,7.19,7.19,0,0,1-1.82,2.49A3.22,3.22,0,0,1,57.42,147.27Z"/><path class="cls-1" d="M95.49,147.27a11.35,11.35,0,0,1-3.17-.44,5,5,0,0,1-2.6-1.86,29,29,0,0,1,.69-3.23q.56-2.12,1.36-4.81t1.72-5.55q.9-2.85,1.79-5.46t1.57-4.55c.46-1.31.8-2.25,1-2.84.09-.24.25-.61.47-1.1a11.34,11.34,0,0,1,.86-1.52,5.47,5.47,0,0,1,1.22-1.31,2.37,2.37,0,0,1,1.5-.53,3.46,3.46,0,0,1,1.82.64c-1,2.15-2,4.54-3,7.16s-2,5.33-2.86,8.11-1.73,5.48-2.48,8.1-1.36,5-1.84,7.21a5.14,5.14,0,0,0,1.08.21c.46,0,.9.07,1.31.07a12.85,12.85,0,0,0,5.92-1.45,20.21,20.21,0,0,0,5.17-3.87,27.85,27.85,0,0,0,4.13-5.44,28.87,28.87,0,0,0,2.72-6.19,21.37,21.37,0,0,0,1-6.08,12.23,12.23,0,0,0-1.31-6.06,7.93,7.93,0,0,0-3.6-3.4A12.19,12.19,0,0,0,104.7,112a13.82,13.82,0,0,0-5.58,1.09A9.48,9.48,0,0,0,95.23,116a6.9,6.9,0,0,0-1.41,4.26,6.13,6.13,0,0,0,.1,1.09,4.49,4.49,0,0,0,.33,1.12,4.12,4.12,0,0,1-2.93-.85,2.78,2.78,0,0,1-.88-2.09,5.5,5.5,0,0,1,1.21-3.27A12.61,12.61,0,0,1,95,113.21a19.67,19.67,0,0,1,5-2.25,21.61,21.61,0,0,1,6.2-.85,14.26,14.26,0,0,1,7.5,1.72,10.07,10.07,0,0,1,4.07,4.65,16.17,16.17,0,0,1,1.27,6.52,22.17,22.17,0,0,1-1.31,7.58,25.27,25.27,0,0,1-3.63,6.65,26.81,26.81,0,0,1-5.34,5.3,25.42,25.42,0,0,1-6.44,3.5A20,20,0,0,1,95.49,147.27Z"/><path class="cls-1" d="M120.11,147.32a2.84,2.84,0,0,1-1-.9,2,2,0,0,1-.34-1.13,5.83,5.83,0,0,1,.43-2,6.77,6.77,0,0,1,1.12-1.91,2,2,0,0,1,1.46-.8,1.44,1.44,0,0,1,1.07.46,1.46,1.46,0,0,1,.45,1.06,11.92,11.92,0,0,0-1.76,2.39C121.18,145.23,120.68,146.18,120.11,147.32Z"/><path class="cls-2" d="M143.75,143.55a9.24,9.24,0,0,1-4.91-1.36,9.53,9.53,0,0,1-3.58-4,13.5,13.5,0,0,1-1.34-6.24,23.61,23.61,0,0,1,1.15-7.18A32,32,0,0,1,142.8,112a22,22,0,0,1,5.46-4.08,12.44,12.44,0,0,1,5.8-1.5,6.39,6.39,0,0,1,3.33.76,4.39,4.39,0,0,1,1.79,2,6.48,6.48,0,0,1,.55,2.67,9.38,9.38,0,0,1-.59,3.22,7.39,7.39,0,0,1-1.63,2.67,3.08,3.08,0,0,1-2.26,1.06,1.8,1.8,0,0,1-1.05-.32,3.29,3.29,0,0,1-1-1.2,6.7,6.7,0,0,0,1.6-1.61,13.83,13.83,0,0,0,1.55-2.56,5.86,5.86,0,0,0,.67-2.5,2.15,2.15,0,0,0-.6-1.55,2.65,2.65,0,0,0-2-.62,7.91,7.91,0,0,0-4.41,1.54,20.37,20.37,0,0,0-4.32,4.1,35.21,35.21,0,0,0-3.69,5.71,34.42,34.42,0,0,0-2.6,6.45,22.37,22.37,0,0,0-1,6.24,10.09,10.09,0,0,0,1.89,6.52,5.61,5.61,0,0,0,4.5,2.32,6,6,0,0,0,3.61-1.2,11.67,11.67,0,0,0,2.91-3.15,18.58,18.58,0,0,0,2-4.26,20.3,20.3,0,0,0,.95-4.51,24.27,24.27,0,0,0-2.46-.35c-.84-.07-1.72-.11-2.65-.11-.51,0-1,0-1.52,0l-1.62.07a4.33,4.33,0,0,1,1.35-2.37,3.75,3.75,0,0,1,2.46-.76,10,10,0,0,1,2.89.43c1,.3,1.95.61,3,.95a30.36,30.36,0,0,0,2.93.83l-.48,1.42c-.57,1.69-1,3.1-1.4,4.22s-.65,2.07-.84,2.85a15.46,15.46,0,0,0-.38,2.12,17.73,17.73,0,0,0-.1,2c0,.61,0,1.25.05,1.91s.06,1.47.1,2.42a3.84,3.84,0,0,1-2.13-.81,2.83,2.83,0,0,1-.9-1.45,6.11,6.11,0,0,1-.22-1.61v-.46a2.4,2.4,0,0,1,0-.46,14.69,14.69,0,0,1-3.84,3.25A9.58,9.58,0,0,1,143.75,143.55Z"/><path class="cls-2" d="M171.85,143.55a9.54,9.54,0,0,1-5.06-1.4,10,10,0,0,1-3.62-4,13.23,13.23,0,0,1-1.34-6.17,23.43,23.43,0,0,1,1.15-7.16,31.81,31.81,0,0,1,3.14-6.91A30,30,0,0,1,170.8,112a22.55,22.55,0,0,1,5.7-4.1,13.9,13.9,0,0,1,6.23-1.5,8.34,8.34,0,0,1,1.41.19,3.59,3.59,0,0,1,1.83,1.1l-.64-.07-.74,0a9.73,9.73,0,0,0-5,1.5,20.91,20.91,0,0,0-4.82,4,31.08,31.08,0,0,0-4.08,5.73,33.87,33.87,0,0,0-2.84,6.66,23,23,0,0,0-1.05,6.72,14.68,14.68,0,0,0,.67,4.47,7.23,7.23,0,0,0,2.15,3.34,5.81,5.81,0,0,0,3.91,1.26,8.64,8.64,0,0,0,4.91-1.52,16.3,16.3,0,0,0,4.15-4.07,28.88,28.88,0,0,0,3.2-5.71,36.33,36.33,0,0,0,2.05-6.5,30.22,30.22,0,0,0,.72-6.38,24.94,24.94,0,0,0-.19-2.87,10.18,10.18,0,0,0-.65-2.65c-.3-.74-.74-1.11-1.31-1.11a2.61,2.61,0,0,0-1.76,1,14,14,0,0,0-1.87,2.51,25.09,25.09,0,0,0-1.59,3.2,18,18,0,0,0-1,3,4.44,4.44,0,0,1-2.31-1,2.25,2.25,0,0,1-.7-1.66,5.53,5.53,0,0,1,.91-2.76,14,14,0,0,1,2.36-2.93,15.64,15.64,0,0,1,3.06-2.32,5.92,5.92,0,0,1,3-.92,3,3,0,0,1,2.31,1,6.86,6.86,0,0,1,1.36,2.56,18.12,18.12,0,0,1,.67,3.34,32.88,32.88,0,0,1,.19,3.29,29.38,29.38,0,0,1-1.19,8.59,25.75,25.75,0,0,1-3.22,6.89,24.24,24.24,0,0,1-4.54,5.06,19.22,19.22,0,0,1-5.15,3.13A13.57,13.57,0,0,1,171.85,143.55Z"/><path class="cls-1" d="M91.09,163.69a6.78,6.78,0,0,1-.75,3.18A5.14,5.14,0,0,1,88.26,169a6.34,6.34,0,0,1-3.08.72H82.9L85,159.66h2.11a3.92,3.92,0,0,1,2.94,1A4.11,4.11,0,0,1,91.09,163.69Zm-5.93,5.45a5.44,5.44,0,0,0,2.73-.66,4.36,4.36,0,0,0,1.8-1.9,6.1,6.1,0,0,0,.64-2.85c0-2.29-1.09-3.44-3.29-3.44H85.62l-1.9,8.85Z"/><path class="cls-1" d="M97.83,169.76H91.44l.15-.64L99,160.31H93.7l.15-.65H100l-.13.61-7.38,8.84H98Z"/></g><g id="gradient_arrow" data-name="gradient arrow"><polygon class="cls-3" points="69 31.71 122.13 67.32 69.86 102.07 90.66 102.07 142.79 67.17 89.66 31.71 69 31.71"/></g><g id="orange_arrow_down" data-name="orange arrow down"><polygon class="cls-4" points="114.73 66.46 91.94 81.99 71.42 81.99 104.9 59.77 114.73 66.46"/></g><g id="orange_arrow_up" data-name="orange arrow up"><polygon class="cls-4" points="130.82 55.64 121.31 49.37 124.27 47.09 69.86 11.05 90.94 11.05 144.64 47.09 130.82 55.64"/></g></svg>